<svg xmlns="http://www.w3.org/2000/svg" viewBox="-4 -2 692.7 114" width="685" height="110"><path d="M70 5 L131 18 L131 56 Q131 70 118 78 L70 105 L22 78 Q9 70 9 56 L9 18 Z" fill="none" stroke="#0B2A5B" stroke-width="9" stroke-linejoin="round"/><rect x="34" y="66" width="17" height="14" rx="1.5" fill="#0B2A5B"/><rect x="58" y="57" width="17" height="23" rx="1.5" fill="#0B2A5B"/><rect x="82" y="49" width="17" height="31" rx="1.5" fill="#0B2A5B"/><path d="M79 34 L88 42 L104 26" fill="none" stroke="#1E7B4F" stroke-width="8" stroke-linecap="round" stroke-linejoin="round"/><g transform="translate(163.2,82.8)"><path d="M0.7919999999999999 0.0 18.936 -53.63999999999999H33.768L51.912 0.0H39.744L36.144 -10.943999999999999H16.488L12.888 0.0ZM19.584 -20.663999999999998H33.047999999999995L24.84 -46.007999999999996H27.863999999999997ZM56.855999999999995 0.0V-53.63999999999999H68.01599999999999V0.0ZM89.27999999999999 0.0V-53.63999999999999H125.99999999999999V-43.919999999999995H100.44V-30.311999999999998H122.39999999999999V-20.592H100.44V0.0ZM148.944 0.8639999999999999Q143.11199999999997 0.8639999999999999 138.32399999999996 -1.7999999999999998Q133.53599999999997 -4.4639999999999995 130.69199999999998 -9.107999999999999Q127.84799999999998 -13.751999999999999 127.84799999999998 -19.656Q127.84799999999998 -25.631999999999998 130.69199999999998 -30.24Q133.53599999999997 -34.848 138.32399999999996 -37.512Q143.11199999999997 -40.175999999999995 148.944 -40.175999999999995Q154.77599999999998 -40.175999999999995 159.52799999999996 -37.512Q164.27999999999997 -34.848 167.12399999999997 -30.24Q169.96799999999996 -25.631999999999998 169.96799999999996 -19.656Q169.96799999999996 -13.751999999999999 167.12399999999997 -9.107999999999999Q164.27999999999997 -4.4639999999999995 159.52799999999996 -1.7999999999999998Q154.77599999999998 0.8639999999999999 148.944 0.8639999999999999ZM148.944 -8.856Q151.896 -8.856 154.09199999999998 -10.224Q156.28799999999998 -11.591999999999999 157.548 -14.04Q158.808 -16.488 158.808 -19.656Q158.808 -22.823999999999998 157.548 -25.235999999999997Q156.28799999999998 -27.647999999999996 154.09199999999998 -29.051999999999996Q151.896 -30.455999999999996 148.944 -30.455999999999996Q145.992 -30.455999999999996 143.76 -29.051999999999996Q141.52799999999996 -27.647999999999996 140.26799999999997 -25.235999999999997Q139.00799999999998 -22.823999999999998 139.00799999999998 -19.656Q139.00799999999998 -16.488 140.26799999999997 -14.04Q141.52799999999996 -11.591999999999999 143.76 -10.224Q145.992 -8.856 148.944 -8.856ZM189.81599999999997 0.8639999999999999Q185.06399999999996 0.8639999999999999 181.71599999999995 -1.188Q178.36799999999997 -3.2399999999999998 176.64 -6.912Q174.91199999999998 -10.584 174.91199999999998 -15.479999999999999V-39.312H185.71199999999996V-16.343999999999998Q185.71199999999996 -14.111999999999998 186.61199999999997 -12.419999999999998Q187.51199999999997 -10.728 189.16799999999995 -9.792Q190.82399999999996 -8.856 192.91199999999998 -8.856Q195.07199999999997 -8.856 196.69199999999995 -9.792Q198.31199999999995 -10.728 199.21199999999996 -12.419999999999998Q200.11199999999997 -14.111999999999998 200.11199999999997 -16.343999999999998V-39.312H210.91199999999998V0.0H200.83199999999997V-7.776L201.40799999999996 -6.047999999999999Q200.03999999999996 -2.52 196.97999999999996 -0.8280000000000001Q193.91999999999996 0.8639999999999999 189.81599999999997 0.8639999999999999ZM218.23199999999997 0.0V-39.312H228.31199999999995V-31.535999999999998L227.73599999999996 -33.263999999999996Q229.10399999999996 -36.791999999999994 232.16399999999996 -38.483999999999995Q235.22399999999996 -40.175999999999995 239.32799999999997 -40.175999999999995Q243.79199999999997 -40.175999999999995 247.13999999999996 -38.303999999999995Q250.48799999999994 -36.431999999999995 252.35999999999996 -33.083999999999996Q254.23199999999997 -29.735999999999997 254.23199999999997 -25.272V0.0H243.43199999999996V-22.968Q243.43199999999996 -25.272 242.53199999999995 -26.927999999999997Q241.63199999999995 -28.583999999999996 240.01199999999994 -29.519999999999996Q238.39199999999997 -30.455999999999996 236.23199999999997 -30.455999999999996Q234.14399999999995 -30.455999999999996 232.48799999999994 -29.519999999999996Q230.83199999999997 -28.583999999999996 229.93199999999996 -26.927999999999997Q229.03199999999995 -25.272 229.03199999999995 -22.968V0.0ZM279.26399999999995 0.8639999999999999Q273.50399999999996 0.8639999999999999 268.96799999999996 -1.8719999999999999Q264.43199999999996 -4.608 261.804 -9.287999999999998Q259.17599999999993 -13.967999999999998 259.17599999999993 -19.656Q259.17599999999993 -25.415999999999997 261.8399999999999 -30.06Q264.50399999999996 -34.704 269.03999999999996 -37.44Q273.57599999999996 -40.175999999999995 279.19199999999995 -40.175999999999995Q283.51199999999994 -40.175999999999995 286.85999999999996 -38.556Q290.20799999999997 -36.936 292.15199999999993 -33.983999999999995L290.496 -31.823999999999998V-54.504H301.29599999999994V0.0H291.21599999999995V-7.199999999999999L292.22399999999993 -4.968Q290.20799999999997 -2.0879999999999996 286.75199999999995 -0.6119999999999999Q283.29599999999994 0.8639999999999999 279.26399999999995 0.8639999999999999ZM280.55999999999995 -8.856Q283.51199999999994 -8.856 285.7439999999999 -10.224Q287.97599999999994 -11.591999999999999 289.236 -14.04Q290.496 -16.488 290.496 -19.656Q290.496 -22.823999999999998 289.236 -25.272Q287.97599999999994 -27.72 285.7439999999999 -29.087999999999997Q283.51199999999994 -30.455999999999996 280.55999999999995 -30.455999999999996Q277.60799999999995 -30.455999999999996 275.2679999999999 -29.051999999999996Q272.92799999999994 -27.647999999999996 271.63199999999995 -25.235999999999997Q270.33599999999996 -22.823999999999998 270.33599999999996 -19.656Q270.33599999999996 -16.488 271.63199999999995 -14.04Q272.92799999999994 -11.591999999999999 275.2679999999999 -10.224Q277.60799999999995 -8.856 280.55999999999995 -8.856ZM341.28 0.8639999999999999Q336.23999999999995 0.8639999999999999 331.81199999999995 -0.972Q327.38399999999996 -2.808 324.17999999999995 -6.191999999999999Q320.97599999999994 -9.575999999999999 319.39199999999994 -14.184L328.53599999999994 -18.288Q330.55199999999996 -13.895999999999999 334.116 -11.376Q337.67999999999995 -8.856 341.99999999999994 -8.856Q344.304 -8.856 345.96 -9.576Q347.616 -10.296 348.55199999999996 -11.556Q349.48799999999994 -12.815999999999999 349.48799999999994 -14.543999999999999Q349.48799999999994 -16.416 348.33599999999996 -17.747999999999998Q347.18399999999997 -19.08 344.736 -19.872L334.22399999999993 -23.328Q327.816 -25.415999999999997 324.57599999999996 -29.267999999999997Q321.33599999999996 -33.12 321.33599999999996 -38.519999999999996Q321.33599999999996 -43.272 323.67599999999993 -46.872Q326.01599999999996 -50.471999999999994 330.22799999999995 -52.488Q334.43999999999994 -54.504 339.912 -54.504Q344.736 -54.504 348.84 -52.848Q352.94399999999996 -51.19199999999999 355.93199999999996 -48.16799999999999Q358.91999999999996 -45.144 360.43199999999996 -40.895999999999994L351.35999999999996 -36.791999999999994Q349.84799999999996 -40.535999999999994 346.82399999999996 -42.66Q343.79999999999995 -44.784 339.912 -44.784Q337.67999999999995 -44.784 335.95199999999994 -44.06399999999999Q334.22399999999993 -43.343999999999994 333.28799999999995 -42.012Q332.352 -40.68 332.352 -38.952Q332.352 -37.08 333.57599999999996 -35.676Q334.79999999999995 -34.272 337.24799999999993 -33.48L347.544 -30.168Q354.02399999999994 -28.08 357.22799999999995 -24.336Q360.43199999999996 -20.592 360.43199999999996 -15.191999999999998Q360.43199999999996 -10.511999999999999 357.9839999999999 -6.8759999999999994Q355.53599999999994 -3.2399999999999998 351.25199999999995 -1.188Q346.96799999999996 0.8639999999999999 341.28 0.8639999999999999ZM386.2559999999999 0.8639999999999999Q380.3519999999999 0.8639999999999999 375.63599999999997 -1.8359999999999999Q370.91999999999996 -4.536 368.1479999999999 -9.216Q365.3759999999999 -13.895999999999999 365.3759999999999 -19.727999999999998Q365.3759999999999 -25.56 368.11199999999997 -30.204Q370.84799999999996 -34.848 375.5999999999999 -37.512Q380.3519999999999 -40.175999999999995 386.2559999999999 -40.175999999999995Q390.6479999999999 -40.175999999999995 394.39199999999994 -38.663999999999994Q398.13599999999997 -37.151999999999994 400.79999999999995 -34.452Q403.46399999999994 -31.752 404.61599999999993 -28.08L395.256 -24.048Q394.24799999999993 -26.999999999999996 391.8359999999999 -28.727999999999994Q389.4239999999999 -30.455999999999996 386.2559999999999 -30.455999999999996Q383.4479999999999 -30.455999999999996 381.25199999999995 -29.087999999999997Q379.0559999999999 -27.72 377.79599999999994 -25.272Q376.53599999999994 -22.823999999999998 376.53599999999994 -19.656Q376.53599999999994 -16.488 377.79599999999994 -14.04Q379.0559999999999 -11.591999999999999 381.25199999999995 -10.224Q383.4479999999999 -8.856 386.2559999999999 -8.856Q389.4959999999999 -8.856 391.87199999999996 -10.584Q394.24799999999993 -12.312 395.256 -15.264L404.61599999999993 -11.159999999999998Q403.53599999999994 -7.704 400.87199999999996 -4.968Q398.20799999999997 -2.2319999999999998 394.46399999999994 -0.6839999999999999Q390.7199999999999 0.8639999999999999 386.2559999999999 0.8639999999999999ZM429.8639999999999 0.8639999999999999Q424.0319999999999 0.8639999999999999 419.2439999999999 -1.7999999999999998Q414.45599999999996 -4.4639999999999995 411.61199999999997 -9.107999999999999Q408.7679999999999 -13.751999999999999 408.7679999999999 -19.656Q408.7679999999999 -25.631999999999998 411.61199999999997 -30.24Q414.45599999999996 -34.848 419.2439999999999 -37.512Q424.0319999999999 -40.175999999999995 429.8639999999999 -40.175999999999995Q435.6959999999999 -40.175999999999995 440.4479999999999 -37.512Q445.19999999999993 -34.848 448.0439999999999 -30.24Q450.8879999999999 -25.631999999999998 450.8879999999999 -19.656Q450.8879999999999 -13.751999999999999 448.0439999999999 -9.107999999999999Q445.19999999999993 -4.4639999999999995 440.4479999999999 -1.7999999999999998Q435.6959999999999 0.8639999999999999 429.8639999999999 0.8639999999999999ZM429.8639999999999 -8.856Q432.8159999999999 -8.856 435.01199999999994 -10.224Q437.2079999999999 -11.591999999999999 438.46799999999996 -14.04Q439.72799999999995 -16.488 439.72799999999995 -19.656Q439.72799999999995 -22.823999999999998 438.46799999999996 -25.235999999999997Q437.2079999999999 -27.647999999999996 435.01199999999994 -29.051999999999996Q432.8159999999999 -30.455999999999996 429.8639999999999 -30.455999999999996Q426.9119999999999 -30.455999999999996 424.67999999999995 -29.051999999999996Q422.4479999999999 -27.647999999999996 421.18799999999993 -25.235999999999997Q419.92799999999994 -22.823999999999998 419.92799999999994 -19.656Q419.92799999999994 -16.488 421.18799999999993 -14.04Q422.4479999999999 -11.591999999999999 424.67999999999995 -10.224Q426.9119999999999 -8.856 429.8639999999999 -8.856ZM456.6239999999999 0.0V-39.312H466.70399999999995V-29.88L465.9839999999999 -31.247999999999998Q467.2799999999999 -36.215999999999994 470.2679999999999 -37.98Q473.2559999999999 -39.744 477.3599999999999 -39.744H479.66399999999993V-30.383999999999997H476.2799999999999Q472.31999999999994 -30.383999999999997 469.87199999999996 -27.971999999999998Q467.4239999999999 -25.56 467.4239999999999 -21.168V0.0ZM502.75199999999995 0.8639999999999999Q496.48799999999994 0.8639999999999999 491.87999999999994 -1.908Q487.27199999999993 -4.68 484.75199999999995 -9.36Q482.2319999999999 -14.04 482.2319999999999 -19.727999999999998Q482.2319999999999 -25.631999999999998 484.8599999999999 -30.24Q487.48799999999994 -34.848 491.95199999999994 -37.512Q496.41599999999994 -40.175999999999995 502.0319999999999 -40.175999999999995Q506.71199999999993 -40.175999999999995 510.3119999999999 -38.699999999999996Q513.9119999999999 -37.224 516.396 -34.559999999999995Q518.8799999999999 -31.895999999999997 520.1759999999999 -28.403999999999996Q521.472 -24.912 521.472 -20.808Q521.472 -19.656 521.364 -18.54Q521.256 -17.424 520.968 -16.631999999999998H491.5199999999999V-24.552H514.848L509.73599999999993 -20.808Q510.45599999999996 -23.904 509.664 -26.316Q508.87199999999996 -28.727999999999998 506.89199999999994 -30.131999999999998Q504.9119999999999 -31.535999999999998 502.0319999999999 -31.535999999999998Q499.22399999999993 -31.535999999999998 497.20799999999997 -30.168Q495.19199999999995 -28.799999999999997 494.18399999999997 -26.135999999999996Q493.17599999999993 -23.471999999999998 493.39199999999994 -19.656Q493.1039999999999 -16.343999999999998 494.18399999999997 -13.823999999999998Q495.26399999999995 -11.303999999999998 497.496 -9.899999999999999Q499.72799999999995 -8.495999999999999 502.89599999999996 -8.495999999999999Q505.77599999999995 -8.495999999999999 507.828 -9.648Q509.87999999999994 -10.799999999999999 511.0319999999999 -12.815999999999999L519.6719999999999 -8.712Q518.52 -5.832 516.036 -3.6719999999999997Q513.5519999999999 -1.5119999999999998 510.1679999999999 -0.32399999999999995Q506.78399999999993 0.8639999999999999 502.75199999999995 0.8639999999999999Z" fill="#0B2A5B"/></g></svg>
